<svg xmlns="http://www.w3.org/2000/svg" viewBox="0 0 194.9 194.9">
  <defs>
    <style>
      .cls-1 {
        fill: #51a7f9;
      }

      .cls-2 {
        fill: #fff;
      }
    </style>
  </defs>
  <title>ON OFF 1</title>
  <g id="Ebene_2" data-name="Ebene 2">
    <g id="Ebene_1-2" data-name="Ebene 1">
      <circle class="cls-1" cx="97.4" cy="97.4" r="97.4"/>
      <path class="cls-2" d="M91.8,48.6a4.7,4.7,0,0,0-4.7,4.7,4.8,4.8,0,0,0,.7,2.5l-9,9.1V48.4L65.1,34.5a4.8,4.8,0,0,0,.7-2.5,4.6,4.6,0,1,0-4.7,4.7,4.5,4.5,0,0,0,2.7-.9L77.2,49.2V66.7l-4.8,4.9V87L59.8,99.6V66.7l-.4-.4L45.8,52.6a5.4,5.4,0,0,0,.7-2.7A5.5,5.5,0,1,0,41,55.5a5.3,5.3,0,0,0,2.9-.9L57.2,67.9v55.2l-8.7-8.8V92.6L30.7,74.7a4.6,4.6,0,1,0-3.8,2,4.5,4.5,0,0,0,2.5-.7L46.7,93.4v19.2l-2.1-2.1H27.5a4.6,4.6,0,1,0,0,1.8H43.9l13.3,13.4v7l.4.4,12.6,12.7v17l-18.8-19H39l-3.3-3.3a4.5,4.5,0,1,0-3.8,2.1,4.5,4.5,0,0,0,2.6-.8l3.9,3.9H50.6l19.6,19.8.3.3,6.3,6.4H66.5l-8.9-9a4.8,4.8,0,0,0,.8-2.6,4.7,4.7,0,1,0-4.7,4.7,4.6,4.6,0,0,0,2.7-.9h0l9.4,9.5H78.7l3.3,3.3h3.7l-12.9-13V144.6l-.4-.4L59.8,131.5V102.2L74.1,87.8V72.3L89.2,57.1a4.5,4.5,0,0,0,2.7.9,4.7,4.7,0,0,0,0-9.4ZM61.1,35.1A3.1,3.1,0,1,1,64.3,32h0A3.1,3.1,0,0,1,61.1,35.1ZM41,53.6a3.7,3.7,0,1,1,3.7-3.7h0A3.7,3.7,0,0,1,41,53.6ZM26.9,75.1a3,3,0,1,1,3-3h0A3,3,0,0,1,26.9,75.1ZM23,114.4a3,3,0,1,1,3-3h0A3,3,0,0,1,23,114.4ZM31.9,141a3,3,0,1,1,3-3h0a3,3,0,0,1-3,3Zm21.9,22.7a3.1,3.1,0,1,1,3.1-3.1h0A3.1,3.1,0,0,1,53.8,163.7ZM91.8,56.4A3.1,3.1,0,1,1,95,53.3h0a3.1,3.1,0,0,1-3.1,3.1Z"/>
      <path class="cls-2" d="M143.5,32.8a4.8,4.8,0,0,0-4.1,7.1L126.1,53.3V72.1l-9.8,9.9V52.8L104.7,41V32a7.1,7.1,0,1,0-2.8,0V42.3L113.5,54V94.5l-9.3,9.4v6.9l-9.1-9.2V85.3a4.7,4.7,0,1,0-2.2,0v17.3l11.3,11.4v23.3l-7.8,7.8v16.7l-8.9-9V122.4a4.7,4.7,0,1,0-2.2,0v18.1L72.3,127.4V112.6a4.7,4.7,0,1,0-2.2,0v15.7l15.3,15.4v10L96.5,165v12.3h2.8v-7.8l8.9-9v-10l6.2-6.2a4.5,4.5,0,0,0,2.5.8,4.7,4.7,0,1,0-4.1-2.4l-6.8,6.9v10l-6.7,6.8V146.4l7.8-7.8V105.1l9.3-9.3V85.1l11.9-12.1V54.3L141,41.5a4.6,4.6,0,0,0,2.5.8,4.8,4.8,0,0,0,0-9.5ZM98.7,24.9a4.5,4.5,0,1,1,4.5,4.5A4.5,4.5,0,0,1,98.7,24.9ZM91.1,80.7a2.9,2.9,0,1,1,2.9,2.9h0a2.9,2.9,0,0,1-2.9-2.9ZM68.2,108a2.9,2.9,0,1,1,2.9,2.9h0A2.9,2.9,0,0,1,68.2,108Zm15.2,9.8a2.9,2.9,0,1,1,2.9,2.9h0A2.9,2.9,0,0,1,83.4,117.8ZM117,137.3a2.9,2.9,0,1,1-2.9,2.9A2.9,2.9,0,0,1,117,137.3Zm26.5-96.8a2.9,2.9,0,1,1,2.9-2.9h0a2.9,2.9,0,0,1-2.9,2.9Z"/>
      <path class="cls-2" d="M173.9,98.6a4.6,4.6,0,0,0-4.5,3.7H157.7L142,118.1V91.3l20.6-20.8a5.4,5.4,0,0,0,3,.9,5.5,5.5,0,1,0-4.7-2.7L140,89.8l-.4.5v7.9L132,90.6V82.5l6.7-6.8a4.4,4.4,0,0,0,2.7.9,4.6,4.6,0,1,0-4.6-4.6,4.7,4.7,0,0,0,.7,2.4l-7.3,7.3v9.7l9.4,9.4v31.3l-7.2,7.2v-20l-5.3-5.3a4.6,4.6,0,1,0-3.8,2.1,4.5,4.5,0,0,0,2.6-.8l4.8,4.8v21l-6.6,6.7v15.8l-13.6,13.7H114l6.5-6.5h14.8l6.2-6.3a4.5,4.5,0,0,0,2.6.8,4.6,4.6,0,1,0-3.8-2.1l-5.7,5.7H122.3l4.2-4.3v-4.8l12.3-12.4h14.9l.3-.3,10.1-10.2a4.5,4.5,0,0,0,2.4.7,4.6,4.6,0,1,0-3.7-2l-9.8,9.9H138.1l-.3.3-11.3,11.4v-8.4L142,133.1V120.6l16.4-16.5h11a4.6,4.6,0,1,0,4.5-5.6Zm-8.3-36.4a3.7,3.7,0,1,1-3.7,3.7h0a3.7,3.7,0,0,1,3.7-3.7Zm-24.2,6.8a3,3,0,1,1-3,3h0a3,3,0,0,1,3-3Zm-18.1,45.6a3,3,0,1,1,3-3h0a3,3,0,0,1-3,3Zm20.7,43.1a3,3,0,1,1-3,3h0A3,3,0,0,1,144.1,157.6Zm22.4-27.6a3,3,0,1,1-3,3h0a3,3,0,0,1,3-3Zm7.4-23.7a3,3,0,1,1,3-3h0a3,3,0,0,1-3,3Z"/>
    </g>
  </g>
</svg>
